<?xml version="1.0" standalone="no"?>
<!DOCTYPE svg PUBLIC "-//W3C//DTD SVG 20010904//EN"
 "http://www.w3.org/TR/2001/REC-SVG-20010904/DTD/svg10.dtd">
<svg version="1.0" xmlns="http://www.w3.org/2000/svg"
 width="260.000000pt" height="260.000000pt" viewBox="0 0 260.000000 260.000000"
 preserveAspectRatio="xMidYMid meet">
<metadata>
Created by potrace 1.11, written by Peter Selinger 2001-2013
</metadata>
<g transform="translate(0.000000,260.000000) scale(0.100000,-0.100000)"
fill="#000000" stroke="none">
<path d="M1600 2221 c0 -4 27 -32 60 -61 42 -37 57 -57 50 -64 -7 -7 -19 -1
-38 17 -32 31 -42 34 -42 12 0 -19 -9 -19 -34 0 -11 8 -26 15 -34 15 -13 0
-13 -3 1 -17 15 -17 8 -18 -132 -18 -151 1 -471 -21 -581 -40 -26 -5 -76 -11
-149 -20 -120 -14 -504 -97 -588 -127 -49 -18 -58 -68 -12 -68 11 0 68 13 127
29 153 42 146 42 148 1 1 -19 5 -96 8 -170 7 -147 9 -316 6 -424 -2 -73 9 -93
42 -75 18 9 20 23 20 134 1 158 -19 562 -28 577 -3 4 -3 8 0 8 2 0 58 13 123
29 112 28 188 44 278 56 22 3 65 10 95 15 30 5 87 12 125 16 39 3 81 8 95 10
14 3 125 8 246 11 220 6 222 6 229 -16 7 -23 16 -26 32 -10 8 8 32 7 88 -2
l77 -13 -5 -48 c-3 -28 -1 -48 5 -50 6 -2 29 16 52 39 l41 44 93 -22 c61 -14
97 -18 103 -12 14 14 -20 53 -52 58 -61 11 -204 57 -228 74 -35 24 -207 121
-215 121 -3 0 -6 -4 -6 -9z"/>
<path d="M862 1739 c-46 -14 -104 -75 -140 -150 -24 -49 -31 -58 -32 -39 -4
142 -20 204 -44 180 -9 -9 -10 -96 -1 -139 2 -11 6 -80 10 -153 7 -170 14
-218 32 -225 26 -10 32 10 34 119 5 219 81 375 179 366 31 -3 35 0 35 22 0 29
-21 34 -73 19z"/>
<path d="M1530 1743 c-72 -12 -190 -61 -190 -78 0 -24 27 -23 97 5 126 51 132
47 86 -47 -26 -55 -42 -64 -130 -78 -22 -4 -49 -13 -60 -20 -17 -13 -16 -14
10 -20 15 -4 48 -2 73 4 26 7 48 10 50 8 3 -2 -10 -37 -27 -78 -40 -93 -49
-175 -23 -206 11 -12 34 -24 53 -27 64 -9 210 65 226 114 11 34 -2 35 -43 3
-52 -42 -95 -62 -146 -69 -37 -5 -46 -3 -54 12 -12 25 -6 62 24 142 41 108 58
130 120 148 50 14 76 36 61 50 -3 3 -22 1 -42 -6 -20 -7 -39 -10 -41 -7 -3 3
9 32 26 65 44 85 31 102 -70 85z"/>
<path d="M1899 1732 c-35 -24 -47 -40 -84 -117 -42 -86 -64 -167 -72 -260 -5
-66 -3 -73 21 -102 36 -43 70 -47 132 -17 92 44 183 164 124 164 -11 0 -20 -4
-20 -9 0 -15 -82 -101 -111 -116 -33 -18 -71 -19 -86 -4 -8 8 8 35 59 97 95
120 133 198 133 279 0 66 -13 90 -52 97 -11 3 -31 -3 -44 -12z m49 -72 c8 -53
-96 -263 -146 -296 -23 -15 -23 -15 -17 23 30 178 148 376 163 273z"/>
<path d="M2216 1719 c-68 -59 -146 -276 -143 -394 2 -52 5 -60 35 -85 27 -22
40 -27 70 -23 73 10 192 112 192 165 0 31 -22 20 -76 -41 -29 -32 -67 -64 -83
-71 -33 -13 -81 -7 -81 11 0 6 22 37 49 68 97 112 151 217 151 291 0 46 -18
100 -33 101 -7 0 -20 2 -30 4 -10 2 -33 -10 -51 -26z m62 -78 c-8 -81 -116
-281 -152 -281 -41 0 64 284 119 322 28 20 38 8 33 -41z"/>
<path d="M1010 1708 c-65 -66 -131 -249 -131 -365 0 -114 40 -156 116 -121 23
10 94 104 95 125 1 4 9 25 19 46 l18 39 5 -40 c16 -113 88 -168 168 -127 25
13 60 60 60 80 0 14 -25 2 -50 -25 -49 -52 -109 -31 -130 46 -12 43 -10 183 5
302 5 33 3 42 -9 42 -9 0 -19 -12 -22 -26 -6 -24 -8 -25 -17 -8 -19 36 -51 64
-73 64 -12 0 -36 -15 -54 -32z m75 -25 c21 -21 35 -57 35 -92 0 -83 -89 -297
-136 -328 -24 -15 -26 -15 -47 6 -31 30 -30 99 3 221 26 96 91 210 120 210 5
0 16 -7 25 -17z"/>
<path d="M142 1013 l3 -28 85 0 85 0 2 -210 c0 -116 2 -216 2 -222 1 -7 12
-13 26 -13 29 0 27 -23 26 243 0 180 1 197 17 198 9 1 44 3 77 4 33 1 66 3 73
4 6 0 12 12 12 26 l0 25 -206 0 -205 0 3 -27z"/>
<path d="M599 1028 c-1 -16 -1 -447 0 -470 1 -13 9 -18 29 -18 l28 0 0 100 -1
100 61 0 62 0 63 -99 64 -100 65 0 65 -1 30 78 31 77 104 0 104 0 31 -77 c29
-74 31 -78 62 -78 l31 0 -100 250 c-97 243 -101 250 -128 250 -27 0 -31 -7
-125 -242 -53 -134 -98 -245 -100 -247 -2 -2 -33 41 -68 95 l-64 99 36 20 c65
37 92 141 54 207 -32 54 -77 68 -213 68 -89 0 -120 -3 -121 -12z m251 -56 c53
-25 61 -105 15 -151 -21 -21 -32 -24 -117 -25 l-93 -1 0 90 c-1 50 1 94 3 98
6 13 161 4 192 -11z m389 -104 c19 -51 36 -99 39 -105 3 -10 -17 -13 -78 -13
-61 0 -81 3 -78 13 32 90 74 197 78 197 3 0 21 -42 39 -92z"/>
<path d="M1397 898 c30 -79 73 -192 95 -251 40 -106 41 -108 70 -105 29 3 32
8 124 247 52 135 94 246 94 249 0 2 -14 2 -31 0 -30 -3 -32 -6 -107 -205 -42
-111 -79 -199 -83 -195 -3 4 -39 96 -80 204 l-74 198 -32 0 -31 0 55 -142z"/>
<path d="M1829 988 c0 -62 0 -417 0 -435 1 -10 39 -13 156 -13 148 0 155 1
155 20 0 11 1 23 3 27 1 4 -55 7 -125 6 -91 -1 -128 2 -129 10 -1 7 -2 45 -3
85 l-1 72 30 1 c17 0 67 0 111 0 80 -1 82 0 87 24 6 33 -2 37 -76 35 -34 -1
-82 -1 -107 -1 l-46 1 1 83 1 82 123 1 c67 1 124 3 126 5 1 2 5 13 7 24 3 19
-3 20 -154 23 l-158 3 -1 -53z"/>
<path d="M2214 790 l0 -250 155 2 c151 3 154 3 157 26 5 26 15 24 -126 27 -63
2 -118 3 -122 4 -5 0 -8 100 -8 221 l0 220 -28 0 -27 0 -1 -250z"/>
</g>
</svg>
