<svg xmlns="http://www.w3.org/2000/svg" viewBox="0 0 489.5 160.58"><defs><style>.bbce4442-4843-4708-aaa5-3e2ec86b6c14{fill:#0067ac;}.f6276c76-26b4-4a4d-9bb9-59f44e86cdd4{fill:#79addd;}.a9177a73-f6b8-4e3a-8a67-2994dea416c7{fill:#231f20;}</style></defs><title>Global Traveler SVG</title><g id="b4eb3cc9-c141-46c4-8031-1572bbd744bc" data-name="Layer 2"><g id="a21af02c-95de-49bc-918b-306c5464bb68" data-name="Layer 1"><path class="bbce4442-4843-4708-aaa5-3e2ec86b6c14" d="M485.74,101.15a3,3,0,1,1-3,3,2.95,2.95,0,0,1,3-3Zm0,.47a2.53,2.53,0,0,0,0,5,2.53,2.53,0,0,0,0-5Zm-.55,4.25h-.54v-3.33a6,6,0,0,1,.95-.08,1.71,1.71,0,0,1,1,.26.79.79,0,0,1,.31.69.84.84,0,0,1-.65.81v0c.29.06.49.32.55.81a2.35,2.35,0,0,0,.22.82h-.56a2.44,2.44,0,0,1-.23-.84.62.62,0,0,0-.71-.59h-.37Zm0-1.84h.38c.44,0,.81-.16.81-.57s-.21-.58-.81-.58l-.38,0Z"/><path class="f6276c76-26b4-4a4d-9bb9-59f44e86cdd4" d="M168.9,33,157.23,5.07c-.51-1-1.86-5.07-3.38-5.07-3.22,0-.51,8.63-17.43,8.63h-58C61.49,8.63,64.2,0,61,0c-1.52,0-2.88,4.06-3.39,5.07L45.93,33a14.82,14.82,0,0,0-1.68,4.31h-.44c-17.42,0-37.38,10.15-37.38,29.94,0,11.5,6.09,23.68,17.76,26.55v.34c-10,.17-19.12,6.43-19.12,17.25,0,15.91,23.18,15.73,34.17,15.91,35.69.67,38.06,5.07,38.06,12.34,0,14.38-22.16,16.92-32.65,16.92-22.15,0-31.46-8.46-31.46-16.41,0-4.4,2-7.11,5.75-8.46v-.34a22.13,22.13,0,0,0-5.41-.84C6.93,130.48,0,133.69,0,141.13c0,8.12,11,19.45,42.79,19.45,19.11,0,46.52-4.9,46.52-29.43,0-.54,0-1.07-.06-1.59H138c1.86,0,5.07.17,5.07-2.54,0-2.87-5.75-1.86-7.1-1.86-17.09.17-18.95-7.44-18.95-34.33V34.17c0-10.66-.5-21.15,13.2-21.15,12.34,0,27.9,11,34,21.15.68,1.35,2.71,5.24,4.57,5.24a2.17,2.17,0,0,0,1.86-2A14,14,0,0,0,168.9,33ZM42.62,41.34c16.58,0,18.44,13.19,18.44,26.73,0,12.34-3,26.55-17.93,26.55C25.71,94.62,24.52,79.74,24.52,66,24.52,53.52,28.08,41.34,42.62,41.34Zm55.07-7.17V90.83c0,20.83-1.12,30.08-9.56,33.12-4.7-12.89-23.09-14.28-45.51-14.28-24.69,0-26.21-2.54-26.21-6.26,0-2.19,1.69-3.72,3.72-4.73a14.54,14.54,0,0,1,6.09-1.52c5.75,0,11.33,1.52,17.08,1.52,17.76,0,35.86-10.66,35.86-30.45,0-12-6.26-22.49-17.42-26.55,1.69-1.69,4.05-4.4,6.59-4.4,4.4,0,4.23,9.47,14.72,9.47a9.27,9.27,0,0,0,9.13-9.47c0-5.24-4.9-9-9.81-9-5.92,0-16.41,3-24.69,11.33a37.4,37.4,0,0,0-9-2.11,22.23,22.23,0,0,0,2-3.37C56.76,24,72.32,13,84.67,13,98.37,13,97.69,23.51,97.69,34.17Z"/><path class="bbce4442-4843-4708-aaa5-3e2ec86b6c14" d="M93.28,75.19H113v35.47h-5.82l-2.23-5.23c-3.58,4.26-6.49,6.2-12.11,6.2-9.5,0-16.09-6.78-16.09-17.93V57.65c0-9.89,5.81-17.93,17.64-17.93,12,0,18,8.72,18,19.19v4.46H100.94c0-10.47-2.13-13.19-6.88-13.19-2.91,0-5.33,1.75-5.33,7.66v36c0,4.46,1.45,7.37,5.62,7.37,4.84,0,6.59-2.72,6.59-9.7V84.69H93.28Z"/><path class="bbce4442-4843-4708-aaa5-3e2ec86b6c14" d="M116.93,110.66v-70h10.85v70Z"/><path class="bbce4442-4843-4708-aaa5-3e2ec86b6c14" d="M130,76.94c0-11.44,4.46-19.39,16.87-19.39s16.86,8,16.86,19.39V92.25c0,11.43-4.46,19.38-16.86,19.38S130,103.68,130,92.25ZM152.89,75c0-6-2.14-8.53-6-8.53s-6,2.52-6,8.53V94.19c0,6,2.13,8.53,6,8.53s6-2.52,6-8.53Z"/><path class="bbce4442-4843-4708-aaa5-3e2ec86b6c14" d="M165.87,110.66v-70h10.86V63c4.26-3.49,6.49-5.43,11.24-5.43,6.79,0,11.05,5,11.05,14.54v25c0,9.49-4.26,14.53-11.05,14.53-5.43,0-8-1.84-11.63-6.39h-.19v5.42ZM176.73,100c2.13,1.55,4.07,2.72,6.2,2.72,2.91,0,5.23-1.55,5.23-8.44V74.9c0-6.88-2.32-8.43-5.23-8.43-2.13,0-4.07,1.16-6.2,2.71Z"/><path class="bbce4442-4843-4708-aaa5-3e2ec86b6c14" d="M200,73.83c.58-10.56,7.27-16.28,17.44-16.28s15.8,4.65,15.8,14.15v33.44a37.29,37.29,0,0,0,.68,5.52H223.54c-.1-1.45-.48-2.81-.58-4.07-4.07,3.3-7.46,5-12.7,5-7.36,0-11-5-11-11.73,0-11.43,7.56-17.73,23.17-23.64V73.15c0-4.36-1.75-6.68-5.33-6.68-5,0-6,2.9-6.21,7.36ZM222.38,84.2c-9.89,5.63-12.31,9.21-12.31,13.77,0,3.39,1.74,4.75,5,4.75,3,0,5.43-2.23,7.27-4.85Z"/><path class="bbce4442-4843-4708-aaa5-3e2ec86b6c14" d="M236.53,110.66v-70h10.85v70Z"/><path class="bbce4442-4843-4708-aaa5-3e2ec86b6c14" d="M271.51,51.15H259.88V40.69h35.28V51.15H283.53v59.51h-12Z"/><path class="bbce4442-4843-4708-aaa5-3e2ec86b6c14" d="M290.33,110.66V58.52H300.7v6.11h.19a14.09,14.09,0,0,1,12.31-7.08h2.23V68.89a24.72,24.72,0,0,0-7-1.07c-3.68,0-7.27,2.33-7.27,7v35.86Z"/><path class="bbce4442-4843-4708-aaa5-3e2ec86b6c14" d="M313.69,73.83c.58-10.56,7.27-16.28,17.44-16.28s15.8,4.65,15.8,14.15v33.44a37.29,37.29,0,0,0,.68,5.52H337.24c-.1-1.45-.49-2.81-.58-4.07-4.07,3.3-7.46,5-12.7,5-7.37,0-11-5-11-11.73,0-11.43,7.56-17.73,23.17-23.64V73.15c0-4.36-1.75-6.68-5.33-6.68-4.95,0-6,2.9-6.21,7.36ZM336.08,84.2c-9.89,5.63-12.31,9.21-12.31,13.77,0,3.39,1.74,4.75,5,4.75,3,0,5.43-2.23,7.27-4.85Z"/><path class="bbce4442-4843-4708-aaa5-3e2ec86b6c14" d="M370.58,58.52h11.05L369,110.66H358.46l-12.6-52.14h11.05l6.69,34.89h.19Z"/><path class="bbce4442-4843-4708-aaa5-3e2ec86b6c14" d="M413.22,86.63H390.35v7.56c0,6,2.13,8.53,6,8.53s6-2.52,6-8.53V93h10.85c-.19,11-4.75,18.61-16.86,18.61-12.41,0-16.87-7.95-16.87-19.38V76.94c0-11.44,4.46-19.39,16.87-19.39s16.86,8,16.86,19.39Zm-10.85-8.92V75c0-6-2.14-8.53-6-8.53s-6,2.52-6,8.53v2.71Z"/><path class="bbce4442-4843-4708-aaa5-3e2ec86b6c14" d="M415.45,110.66v-70H426.3v70Z"/><path class="bbce4442-4843-4708-aaa5-3e2ec86b6c14" d="M462.26,86.63H439.39v7.56c0,6,2.13,8.53,6,8.53s6-2.52,6-8.53V93h10.85c-.19,11-4.75,18.61-16.86,18.61-12.41,0-16.86-7.95-16.86-19.38V76.94c0-11.44,4.45-19.39,16.86-19.39s16.86,8,16.86,19.39Zm-10.85-8.92V75c0-6-2.13-8.53-6-8.53s-6,2.52-6,8.53v2.71Z"/><path class="bbce4442-4843-4708-aaa5-3e2ec86b6c14" d="M464.39,110.66V58.52h10.38v6.11H475a14.08,14.08,0,0,1,12.31-7.08h2.23V68.89a24.72,24.72,0,0,0-7-1.07c-3.68,0-7.27,2.33-7.27,7v35.86Z"/><path class="a9177a73-f6b8-4e3a-8a67-2994dea416c7" d="M22.56,66.76H21.34a2.29,2.29,0,0,1,.46,1.37c0,1.66-1.41,2.43-3,2.43h-.68a.44.44,0,0,0-.46.38c0,.25.15.34.5.38l2.34.26c1.22.14,1.9.65,1.9,1.87,0,1-.83,2.66-3.74,2.66s-3.58-1-3.58-1.9c0-.61.3-1.3,1.56-1.6v0c-.61-.13-1-.4-1-1s.68-1.06,1.37-1.18v0A2.27,2.27,0,0,1,15.29,68c0-1.64,1.25-2.69,3.19-2.69a7.53,7.53,0,0,1,1.49.17h2.59ZM17.68,73c-.36.13-.79.42-.79.83,0,.66.76.94,1.91.94.84,0,1.83-.33,1.83-1,0-.43-.3-.5-.93-.57Zm.9-3.78c1.18,0,1.59-.65,1.59-1.27s-.66-1.23-1.52-1.23S17.08,67,17.08,68C17.08,68.72,17.64,69.18,18.58,69.18Z"/><path class="a9177a73-f6b8-4e3a-8a67-2994dea416c7" d="M24,63.5H22.92V62.12h3v9h.82v1.38H23.23V71.16H24Z"/><path class="a9177a73-f6b8-4e3a-8a67-2994dea416c7" d="M31.23,65.29c2.38,0,3.73,1.32,3.73,3.78a3.5,3.5,0,0,1-3.73,3.64c-2.26,0-3.73-1.22-3.73-3.64A3.63,3.63,0,0,1,31.23,65.29Zm0,5.87c1.16,0,1.67-.77,1.67-2,0-1.51-.51-2.27-1.67-2.27s-1.67,1-1.67,2.27S30.06,71.16,31.23,71.16Z"/><path class="a9177a73-f6b8-4e3a-8a67-2994dea416c7" d="M36.18,63.5H35.09V62.12h3V64.9c0,.57-.06,1.21-.13,1.9h0a2.43,2.43,0,0,1,2.4-1.51c1.56,0,2.74,1.13,2.74,3.24,0,1.94-.93,4.18-4,4.18a7,7,0,0,1-3-.6ZM38,70.9a3,3,0,0,0,1.21.26c1.37,0,2-1.15,2-2.41,0-1-.35-1.91-1.53-1.91A1.57,1.57,0,0,0,38,68.63Z"/><path class="a9177a73-f6b8-4e3a-8a67-2994dea416c7" d="M45,66.84H44V65.46h2.81v5.7h.82v1.38H44.18V71.16H45Zm.88-4.92a1.18,1.18,0,1,1-1.28,1.18A1.15,1.15,0,0,1,45.84,61.92Z"/><path class="a9177a73-f6b8-4e3a-8a67-2994dea416c7" d="M49.33,63.5H48.25V62.12h3v9h.82v1.38H48.56V71.16h.77Z"/><path class="a9177a73-f6b8-4e3a-8a67-2994dea416c7" d="M53.71,66.84h-.92V65.46h2.82v5.7h.81v1.38H52.94V71.16h.77Zm.88-4.92a1.18,1.18,0,1,1-1.27,1.18A1.15,1.15,0,0,1,54.59,61.92Z"/><path class="a9177a73-f6b8-4e3a-8a67-2994dea416c7" d="M58.21,64l1.9-.11v1.58H62v1.38h-1.9V70c0,1,.26,1.24,1,1.24a2.78,2.78,0,0,0,.92-.21L62,72.37a5.12,5.12,0,0,1-1.66.34c-1.39,0-2.14-.65-2.14-1.9v-4h-1V65.46h1Z"/><path class="a9177a73-f6b8-4e3a-8a67-2994dea416c7" d="M66.9,65.46h3.17v1.38h-.65l-2.18,5.85c-1,2.71-1.83,3.42-3.59,3.42a5.18,5.18,0,0,1-1-.16V74.48a4,4,0,0,0,1,.16c.8,0,1.11-.31,1.77-1.62l-2.71-6.18h-.65V65.46h3.52v1.38h-.73a1.75,1.75,0,0,1,.26.49L66,69.74a6.57,6.57,0,0,1,.33,1.34h0a7.28,7.28,0,0,1,.32-1.34l.84-2.41a1.75,1.75,0,0,1,.26-.49H66.9Z"/></g></g></svg>