<svg xmlns="http://www.w3.org/2000/svg" viewBox="0 0 208.67 38.14"><defs><style>.cls-1{fill:#2cb78f;}.cls-2,.cls-3{fill:#fff;}.cls-3{fill-rule:evenodd;}</style></defs><title>trazee-logo</title><g id="Layer_2" data-name="Layer 2"><g id="Layer_1-2" data-name="Layer 1"><path class="cls-1" d="M88.83,15.75V13.13h20.35v2.62h-8.81V38.14H97.66V15.75Z"/><path class="cls-1" d="M111.82,38.14v-25H121A9.47,9.47,0,0,1,127.3,15a6.7,6.7,0,0,1,2.19,5.41,8.08,8.08,0,0,1-.51,2.93,6.83,6.83,0,0,1-1.16,2.05,6.66,6.66,0,0,1-1.55,1.27,7.64,7.64,0,0,1-1.46.72c-.38.11-.74.21-1.07.28l6.87,10.49h-3.19L120.9,28.05h-6.37V38.14Zm2.71-12.63h6.34a10,10,0,0,0,3.12-.43,3.68,3.68,0,0,0,1.82-1.2,4.55,4.55,0,0,0,.77-1.52,6.64,6.64,0,0,0,.2-1.77,6.64,6.64,0,0,0-.2-1.77,4.55,4.55,0,0,0-.77-1.52A3.68,3.68,0,0,0,124,16.1a10,10,0,0,0-3.12-.43h-6.34Z"/><path class="cls-1" d="M130.75,38.14l10-25h2.69l9.94,25h-2.89l-3-7.84H136.68l-3,7.84Zm6.94-10.38h8.77l-4.38-11.45Z"/><path class="cls-1" d="M149.36,13.13h2.87l8.08,21.15,8-21.15h2.89l-9.61,25H159Z"/><path class="cls-1" d="M173.72,38.14v-25H189.5v2.54H176.43v8.65h11.5v2.62h-11.5V35.6H189.5v2.54Z"/><path class="cls-1" d="M193.18,38.14v-25h2.71V35.52h12.78v2.62Z"/><path class="cls-2" d="M74.25,33.94a17.06,17.06,0,0,1,.28-2.75,33.46,33.46,0,0,1,.8-3.55,35,35,0,0,1,1.25-3.7,19.06,19.06,0,0,1,1.62-3.23,7.52,7.52,0,0,1,1.92-2.11,2.37,2.37,0,0,1,2.19-.34c.14,0,.36.1.64.39A2.87,2.87,0,0,1,83.62,20a6.71,6.71,0,0,1,.16,2.25,10.55,10.55,0,0,1-.73,3.31,25.32,25.32,0,0,1-2.51,4.23,40.43,40.43,0,0,1-4.42,5.37,2.15,2.15,0,0,0,1.35,1A3.08,3.08,0,0,0,79.12,36a10.66,10.66,0,0,0,4.31-3.71c.53-.7.75-1.47,1.51-1.47-.2,0,.84-.15.31,1.23a5.27,5.27,0,0,1-1,1.54,13.5,13.5,0,0,1-5,3.86,3.43,3.43,0,0,1-1.53.3,2.68,2.68,0,0,1-1.28-.33,3.86,3.86,0,0,1-1.11-.86,4,4,0,0,1-.78-1.22A3.42,3.42,0,0,1,74.25,33.94ZM81.43,20a1.88,1.88,0,0,0-1.35.82,10.6,10.6,0,0,0-1.36,2.1,26.87,26.87,0,0,0-1.24,2.78c-.38,1-.71,2-1,2.93a22.78,22.78,0,0,0-.59,2.53,5,5,0,0,0-.1,1.58c.33,0,.78-.26,1.33-.84a15.5,15.5,0,0,0,1.7-2.24,26.63,26.63,0,0,0,1.66-3,22.64,22.64,0,0,0,1.23-3.05,8,8,0,0,0,.44-2.45C82.16,20.53,81.91,20.13,81.43,20Z"/><path class="cls-3" d="M64.4,11.35h.66l3-3.31s6.11,1.72,6.83,1.61.58-.42.44-.75a5.37,5.37,0,0,0-.55-.83s-.25-.64-.79-.7a2.93,2.93,0,0,0-.75,0L66.62,5.58,56.93,0l-.07.62,4.82,4.47-1.82.06L58.64,3.68h-.73l-.09.91-.18.18L55.13,3.19l-.05.48,1.7,1.58s-.44,0-.47.35,1,.46,1,.46l.3,1.39H58l.86-.82,5.7,1Z"/><path class="cls-2" d="M22.27,37.25c-.36-1-.54-8.3-.63-9.28s-.17-2.09-.28-3.34-.22-2.73-.34-4.44c0-.08,0-.22,0-.4a3.62,3.62,0,0,1,0-.57,1.23,1.23,0,0,1,.16-.5.57.57,0,0,1,.4-.28c.46.09.74.29.83.61a5.81,5.81,0,0,1,.14,1.45,49.56,49.56,0,0,0,.59,6.13c.38-1.08.81-2.15,1.3-3.2a12.35,12.35,0,0,1,1.75-2.79,8,8,0,0,1,2.34-1.9c.69-.36,2.39-1,3.15-.58a.92.92,0,0,1,.05,1.68c-.3.14-1.18-.3-1.57-.23-2.87.5-4.58,4.47-4.94,5.63A27.27,27.27,0,0,0,24,32.05c-.1,1.4.05,3.85,0,5.23,0,.5-.53.59-.85.59A.9.9,0,0,1,22.27,37.25Z"/><path class="cls-2" d="M32.5,37.94a2,2,0,0,1-1.64-.83A4.87,4.87,0,0,1,30.07,35,11.22,11.22,0,0,1,30,32.09a23.71,23.71,0,0,1,.54-3.4,29.36,29.36,0,0,1,1-3.47A24.7,24.7,0,0,1,33,22.08a13.3,13.3,0,0,1,1.69-2.43,4.42,4.42,0,0,1,1.84-1.33,2.84,2.84,0,0,1,1.33.29,2.94,2.94,0,0,1,.92.8,4.39,4.39,0,0,1,.61,1.13,9,9,0,0,1,.39,1.28A5.59,5.59,0,0,1,40,21a6.25,6.25,0,0,1,.41-1,1.46,1.46,0,0,1,.5-.61c.18-.11.35,0,.52.34-.27,2.19-.46,4.07-.57,5.66s-.14,2.92-.12,4A14.19,14.19,0,0,0,41,32.06a4.94,4.94,0,0,0,.59,1.63,2.43,2.43,0,0,0,.88.87,4.37,4.37,0,0,0,1.09.44A2.3,2.3,0,0,0,45,34.86a3.53,3.53,0,0,0,1.08-.8c.21-.22.75-1.28,1-1.34,1.37-.35,0,2-.31,2.26a4.06,4.06,0,0,1-1.34,1,3.35,3.35,0,0,1-1.67.35,3.29,3.29,0,0,1-2.2-.71,5.32,5.32,0,0,1-1.38-1.81,9.19,9.19,0,0,1-.73-2.35,19,19,0,0,1-.28-2.34l-.91,2.39a20.62,20.62,0,0,1-1.36,2.9A10.17,10.17,0,0,1,35,36.91,3.57,3.57,0,0,1,32.5,37.94Zm4.1-18.25a1.68,1.68,0,0,0-1.05.71,10.11,10.11,0,0,0-1.2,1.78,22.7,22.7,0,0,0-1.21,2.51c-.38.94-.73,1.91-1,2.91a27.43,27.43,0,0,0-.72,3,14.06,14.06,0,0,0-.23,2.7,5.38,5.38,0,0,0,.41,2.06,1.86,1.86,0,0,0,1.18,1.1A1.45,1.45,0,0,0,34,36a6.65,6.65,0,0,0,1.3-1.47,15.42,15.42,0,0,0,1.23-2.21c.4-.86.77-1.74,1.11-2.66s.64-1.83.88-2.73.42-1.75.54-2.52a9.64,9.64,0,0,0-.12-1.37,8,8,0,0,0-.41-1.57,4.24,4.24,0,0,0-.75-1.28A1.49,1.49,0,0,0,36.6,19.69Z"/><path class="cls-2" d="M52.12,38.09a2.88,2.88,0,0,1-2-.81,3,3,0,0,1-.73-1.8,7.69,7.69,0,0,1,.23-2.4,19.77,19.77,0,0,1,.85-2.64c.34-.88.7-1.7,1.08-2.47s.69-1.4,1-1.9c0,0-4.57,1.67-5.77.79s4.56-1.5,6.24-2.25c.26-.11,2.46-5.13,2.75-5.07a7.14,7.14,0,0,0-2.23.21,9,9,0,0,0-1.89.65c-.63.3-1.26.58-1.91.85s-1.84.8-2.15.35-.39-.63-.14-.92a5.94,5.94,0,0,1,1.42-.78,19.65,19.65,0,0,1,2.14-.79,13.47,13.47,0,0,1,1.8-.57,21,21,0,0,1,2.14-.39A7,7,0,0,1,56.71,18a1,1,0,0,1,1,.7,1.35,1.35,0,0,1-.21,1q-.35.66-1,1.74a13,13,0,0,0-1.23,2.69,27.48,27.48,0,0,1,3.37-.93c.48,0,.29.43.13.74a2.61,2.61,0,0,1-1.31.86c-.3.08-1.92.46-2.85.76-.26.41-1.13,1.61-1.47,2.28s-.65,1.4-1,2.17-.59,1.54-.84,2.32a9.17,9.17,0,0,0-.45,2.09A3.13,3.13,0,0,0,51.11,36c.17.39,1,.64,1.5.62A6.54,6.54,0,0,0,55,36.06a10.42,10.42,0,0,0,2.47-1.18,19,19,0,0,0,1.88-1.59c.73-.67,1.37-.95,1,.34-.32,1-1.68,2-2.52,2.59a11.94,11.94,0,0,1-2.89,1.42A7.75,7.75,0,0,1,52.12,38.09Z"/><path class="cls-2" d="M61.9,33.94a17.06,17.06,0,0,1,.28-2.75,33.46,33.46,0,0,1,.8-3.55,35,35,0,0,1,1.25-3.7,19.06,19.06,0,0,1,1.62-3.23,7.38,7.38,0,0,1,1.92-2.11A2.37,2.37,0,0,1,70,18.26c.14,0,.36.1.64.39A3,3,0,0,1,71.27,20a6.71,6.71,0,0,1,.16,2.25,10.84,10.84,0,0,1-.73,3.31,25.32,25.32,0,0,1-2.51,4.23,40.43,40.43,0,0,1-4.42,5.37,2.15,2.15,0,0,0,1.35,1A3.08,3.08,0,0,0,66.77,36a10.66,10.66,0,0,0,4.31-3.71c.52-.7.75-1.47,1.51-1.47-.21,0,.83-.15.31,1.23a5.27,5.27,0,0,1-1,1.54,13.5,13.5,0,0,1-5,3.86,3.43,3.43,0,0,1-1.53.3,2.68,2.68,0,0,1-1.28-.33A3.86,3.86,0,0,1,63,36.56a4,4,0,0,1-.78-1.22A3.42,3.42,0,0,1,61.9,33.94ZM69.08,20a1.88,1.88,0,0,0-1.35.82,10.6,10.6,0,0,0-1.36,2.1,26.87,26.87,0,0,0-1.24,2.78c-.38,1-.71,2-1,2.93a25.58,25.58,0,0,0-.6,2.53,5.18,5.18,0,0,0-.09,1.58c.33,0,.78-.26,1.33-.84a15.5,15.5,0,0,0,1.7-2.24,28.34,28.34,0,0,0,1.66-3,22.64,22.64,0,0,0,1.23-3.05,8,8,0,0,0,.44-2.45C69.81,20.53,69.56,20.13,69.08,20Z"/><path class="cls-2" d="M10.48,11.76c-3.43.82-6,1.56-9,2.48a2.31,2.31,0,0,1-1-.23A.9.9,0,0,1,0,13.13a1.19,1.19,0,0,1,.7-1,8.29,8.29,0,0,1,1.66-.7,13.59,13.59,0,0,1,1.89-.45,13.28,13.28,0,0,0,1.41-.27l6.21-1.49c2-.48,4-.92,6-1.3s4-.66,6.06-.94C47.4,3.73,55.45,4.87,57.64,4.87V6.11c-1.76.08-11.37-1.26-32.41,2.26-1.62.27-3.17.6-4.68.94s-2.93.69-4.3,1.06-1.67.46-2.86.74Z"/><path class="cls-2" d="M13,11.54a6.82,6.82,0,0,1,.3,1.38c0,.51.24,4.76.3,6.19s.27,7.82.31,9.36.08,3,.11,4.3,0,2.4,0,3.26a3,3,0,0,1-.38,1.59,1.22,1.22,0,0,1-1.62.32c-.58-.47,0-5.29,0-6.68s-.21-9.47-.26-10.36-.1-1.84-.17-2.85-.15-4.48-.27-5.13c-.19-1,.51-1.81.51-2C11.83,10.88,12.82,11.06,13,11.54Z"/></g></g></svg>