<svg xmlns="http://www.w3.org/2000/svg" viewBox="0 0 415.74 36.1"><defs><style>.ad91cccc-86de-4be8-8552-d8497e3694b0{fill:#006838;}.faccd973-6038-4e0e-8e03-666bb5c68478{fill:#8dc63f;}</style></defs><title>WhereverFamilySVG</title><g id="f0424e1e-156a-4595-adad-6d60b63b85f7" data-name="Layer 2"><g id="baab1fa8-edb4-4099-b898-0384f2bc6a32" data-name="Layer 1"><path class="ad91cccc-86de-4be8-8552-d8497e3694b0" d="M15.05,27.1,25.4.7h1.45l9,26.6c.7,2.1,1.17,3.62,1.4,4.55.27-1.1.73-2.6,1.4-4.5L47.9,0h2.5L38,36.05h-1.4L27.3,9.55c-.13-.43-.27-.87-.42-1.3s-.28-.82-.38-1.15a8.09,8.09,0,0,0-.3-.85l-.2-.6c0-.17-.05-.27-.05-.3-.4,1.2-.92,2.58-1.55,4.15L14,36.05h-1.4L0,0H2.65L11.8,26.9c.43,1.2.79,2.28,1.08,3.25s.44,1.5.47,1.6A35.29,35.29,0,0,1,15.05,27.1Z"/><path class="ad91cccc-86de-4be8-8552-d8497e3694b0" d="M82.05,35.75V19.35H59.5v16.4H57.2V3.3h2.3v14H82.05V3.3h2.3V35.75Z"/><path class="ad91cccc-86de-4be8-8552-d8497e3694b0" d="M96.35,35.75V3.3H111.5v2H98.65V17.1h11.6v1.95H98.65v14.6H112v2.1Z"/><path class="ad91cccc-86de-4be8-8552-d8497e3694b0" d="M121.2,35.75V3.45q4.3-.34,7.3-.35a11.88,11.88,0,0,1,7.6,2.37,8.16,8.16,0,0,1,3,6.78,9.52,9.52,0,0,1-1.7,5.45,15.91,15.91,0,0,1-3.85,4.05q6,7.91,7.35,9.45a10.3,10.3,0,0,0,6.2,3.35l0,1.55a11.94,11.94,0,0,1-4.55-.82A11,11,0,0,1,139,32.65q-1.72-1.84-7.57-9.95-4,0-7.95-.25v13.3Zm9-14.95q2,0,4.2-2.6a9,9,0,0,0,2.25-6A6.2,6.2,0,0,0,134.3,6.9a9.76,9.76,0,0,0-6.1-1.8c-1.33,0-2.9.07-4.7.2V20.55Q127.1,20.81,130.2,20.8Z"/><path class="ad91cccc-86de-4be8-8552-d8497e3694b0" d="M151.6,35.75V3.3h15.15v2H153.9V17.1h11.6v1.95H153.9v14.6h13.35v2.1Z"/><path class="ad91cccc-86de-4be8-8552-d8497e3694b0" d="M187.05,29,197.9,3.3h2.4L186.35,36H185L171.05,3.3h2.5L185.8,32.15C186,31.65,186.38,30.58,187.05,29Z"/><path class="ad91cccc-86de-4be8-8552-d8497e3694b0" d="M206.9,35.75V3.3h15.15v2H209.2V17.1h11.6v1.95H209.2v14.6h13.35v2.1Z"/><path class="ad91cccc-86de-4be8-8552-d8497e3694b0" d="M231.75,35.75V3.45c2.86-.23,5.3-.35,7.3-.35a11.9,11.9,0,0,1,7.6,2.37,8.16,8.16,0,0,1,3,6.78A9.52,9.52,0,0,1,248,17.7a16.09,16.09,0,0,1-3.85,4.05q5.94,7.91,7.35,9.45a10.27,10.27,0,0,0,6.2,3.35l0,1.55a11.9,11.9,0,0,1-4.55-.82,11,11,0,0,1-3.48-2.63q-1.73-1.84-7.57-9.95-4,0-7.95-.25v13.3Zm9-14.95q2,0,4.2-2.6a9,9,0,0,0,2.25-6,6.23,6.23,0,0,0-2.35-5.25,9.76,9.76,0,0,0-6.1-1.8c-1.34,0-2.9.07-4.7.2V20.55Q237.65,20.81,240.75,20.8Z"/><path class="faccd973-6038-4e0e-8e03-666bb5c68478" d="M262.75,35.75V0H281V2.1H265.15V15.25h14.5V17.3h-14.5V35.75Z"/><path class="faccd973-6038-4e0e-8e03-666bb5c68478" d="M288.9,24.5l-4.65,11.25H281.9L295.5,3.1h1.35l13.7,32.65H308L303.3,24.5Zm7.15-17.7q-.75,2.25-1.35,3.75l-5,12h12.8l-4.95-12C296.78,8.73,296.28,7.47,296.05,6.8Z"/><path class="faccd973-6038-4e0e-8e03-666bb5c68478" d="M332.2,34.05h-1.35L321.4,11.1q-.6-1.35-1.2-3.15s0,.22-.08.55-.11.78-.17,1.33-.14,1-.2,1.37L316,35.75h-2.25l5.3-32.65h1.35l10.1,24q1.2,3,1.2,3.15a27.21,27.21,0,0,1,1.35-3.1l11.25-24h1.35l5,32.65h-2.4L344.65,11.1a27.56,27.56,0,0,1-.35-3.25l-1.45,3.3Z"/><path class="faccd973-6038-4e0e-8e03-666bb5c68478" d="M359.2,35.75V3.3h2.3V35.75Z"/><path class="faccd973-6038-4e0e-8e03-666bb5c68478" d="M373.5,35.75V3.3h2.3V33.65h14.9v2.1Z"/><path class="faccd973-6038-4e0e-8e03-666bb5c68478" d="M403.49,35.75h-2.25V24.15L389,3.3h2.75l9.45,16.1c.74,1.47,1.16,2.25,1.25,2.35.21-.43.62-1.2,1.25-2.3L413.15,3.3h2.59l-12.25,21Z"/></g></g></svg>